<?xml version="1.0" encoding="UTF-8" standalone="no"?>
<!DOCTYPE svg PUBLIC "-//W3C//DTD SVG 1.1//EN" "http://www.w3.org/Graphics/SVG/1.1/DTD/svg11.dtd">
<svg xmlns="http://www.w3.org/2000/svg" version="1.1" viewBox="0.00 0.00 643.00 259.00">
<g stroke-width="2.00" fill="none" stroke-linecap="butt">
<path stroke="#928439" vector-effect="non-scaling-stroke" d="
  M 161.18 166.51
  A 0.40 0.40 0.0 0 1 160.78 166.11
  L 160.79 19.65
  A 0.40 0.40 0.0 0 0 160.39 19.25
  L 125.28 19.25
  A 0.40 0.40 0.0 0 0 124.95 19.42
  L 21.81 168.57
  A 0.40 0.40 0.0 0 0 21.74 168.79
  L 21.74 196.77
  A 0.40 0.40 0.0 0 0 22.14 197.17
  L 124.60 197.15
  A 0.40 0.40 0.0 0 1 125.00 197.55
  L 125.00 246.27
  A 0.40 0.40 0.0 0 0 125.40 246.67
  L 160.39 246.67
  A 0.40 0.40 0.0 0 0 160.79 246.27
  L 160.79 197.55
  A 0.40 0.40 0.0 0 1 161.19 197.15
  L 190.65 197.18
  A 0.40 0.40 0.0 0 0 191.05 196.78
  L 191.06 166.91
  A 0.40 0.40 0.0 0 0 190.66 166.51
  L 161.18 166.51"
/>
<path stroke="#928439" vector-effect="non-scaling-stroke" d="
  M 590.57 197.34
  A 0.32 0.32 0.0 0 1 590.89 197.02
  L 620.76 197.02
  A 0.32 0.32 0.0 0 0 621.08 196.70
  L 621.07 167.04
  A 0.32 0.32 0.0 0 0 620.75 166.72
  L 590.88 166.71
  A 0.32 0.32 0.0 0 1 590.56 166.39
  L 590.55 19.57
  A 0.32 0.32 0.0 0 0 590.23 19.25
  L 555.33 19.25
  A 0.32 0.32 0.0 0 0 555.06 19.39
  L 451.78 168.75
  A 0.32 0.32 0.0 0 0 451.72 168.93
  L 451.72 196.74
  A 0.32 0.32 0.0 0 0 452.04 197.06
  L 554.82 197.04
  A 0.32 0.32 0.0 0 1 555.14 197.36
  L 555.14 246.14
  A 0.32 0.32 0.0 0 0 555.46 246.46
  L 590.22 246.46
  A 0.32 0.32 0.0 0 0 590.54 246.14
  L 590.57 197.34"
/>
<path stroke="#928439" vector-effect="non-scaling-stroke" d="
  M 331.67 247.45
  Q 334.79 247.36 338.18 246.86
  Q 349.51 245.19 358.87 242.12
  Q 369.31 238.69 377.50 234.19
  Q 414.52 213.85 430.26 174.16
  Q 431.11 172.01 431.65 169.89
  Q 432.21 167.75 433.03 165.70
  Q 434.16 162.90 434.62 159.50
  C 435.03 156.48 436.03 153.67 436.41 150.59
  Q 438.44 134.39 436.45 117.09
  C 436.13 114.28 435.14 111.71 434.71 108.95
  Q 434.28 106.06 433.35 103.04
  Q 430.37 93.25 428.04 88.21
  Q 406.64 41.74 358.29 25.32
  C 354.85 24.15 351.43 23.59 347.93 22.66
  Q 344.35 21.71 340.24 21.19
  Q 324.77 19.25 310.67 20.78
  Q 303.73 21.54 296.86 23.19
  Q 289.73 24.89 283.64 27.27
  Q 282.19 27.84 280.74 28.31
  Q 279.19 28.82 277.99 29.49
  C 275.91 30.66 273.74 31.39 271.69 32.48
  C 245.57 46.30 226.20 68.22 216.17 95.99
  Q 214.18 101.49 213.05 106.76
  Q 212.33 110.16 211.60 113.52
  Q 210.86 116.92 210.55 120.55
  Q 209.33 134.97 210.79 149.66
  C 211.11 152.89 212.15 155.99 212.69 159.17
  Q 213.31 162.80 214.39 166.22
  Q 229.39 213.60 274.00 236.42
  Q 282.00 240.51 296.60 244.43
  Q 299.97 245.34 308.45 246.79
  Q 314.17 247.76 320.05 247.69
  Q 326.15 247.61 331.67 247.45"
/>
<path stroke="#928439" vector-effect="non-scaling-stroke" d="
  M 125.19 60.86
  C 120.99 70.95 114.94 80.64 108.69 89.73
  Q 81.78 128.91 56.27 166.00
  Q 55.92 166.51 56.54 166.51
  L 124.71 166.51
  Q 125.02 166.51 125.02 166.21
  Q 124.97 134.73 125.02 100.54
  C 125.05 87.11 125.86 73.91 126.60 60.61
  A 0.43 0.42 82.8 0 0 126.05 60.18
  Q 125.76 60.27 125.52 60.45
  Q 125.30 60.61 125.19 60.86"
/>
<path stroke="#928439" vector-effect="non-scaling-stroke" d="
  M 555.37 91.23
  C 555.47 81.78 556.02 71.09 556.55 60.63
  A 0.47 0.46 80.8 0 0 555.92 60.17
  Q 555.23 60.45 554.93 61.12
  C 550.24 71.88 543.93 81.95 536.93 92.10
  Q 509.97 131.18 485.86 166.38
  A 0.21 0.21 0.0 0 0 486.03 166.71
  L 554.78 166.72
  Q 555.19 166.72 555.19 166.31
  Q 554.95 128.90 555.37 91.23"
/>
<path stroke="#928439" vector-effect="non-scaling-stroke" d="
  M 301.95 47.63
  Q 297.72 48.45 294.14 49.65
  Q 271.38 57.23 255.27 75.27"
/>
<path stroke="#8a9a58" vector-effect="non-scaling-stroke" d="
  M 255.27 75.27
  Q 255.27 75.44 254.77 75.36
  Q 247.39 74.25 238.41 74.74
  C 235.44 74.90 232.84 76.26 231.20 78.71
  Q 229.78 80.82 229.69 84.60
  Q 229.48 94.15 234.12 102.69
  Q 235.69 105.57 237.07 108.03"
/>
<path stroke="#928439" vector-effect="non-scaling-stroke" d="
  M 237.07 108.03
  Q 229.09 135.30 238.75 163.23"
/>
<path stroke="#8a9a58" vector-effect="non-scaling-stroke" d="
  M 238.75 163.23
  Q 248.26 190.20 272.68 206.61"
/>
<path stroke="#ffdd7e" vector-effect="non-scaling-stroke" d="
  M 272.68 206.61
  Q 294.82 220.95 320.26 221.44
  Q 348.29 221.97 372.10 205.85
  Q 400.17 186.85 408.23 152.00
  Q 410.28 143.12 409.85 132.14"
/>
<path stroke="#8a9a58" vector-effect="non-scaling-stroke" d="
  M 409.85 132.14
  Q 418.60 125.47 416.07 114.92
  C 415.43 112.25 413.55 109.59 412.21 107.01
  Q 409.69 102.16 403.05 99.08"
/>
<path stroke="#928439" vector-effect="non-scaling-stroke" d="
  M 403.05 99.08
  C 394.35 77.85 377.07 61.28 356.25 52.23
  Q 336.22 43.53 312.55 45.77"
/>
<path stroke="#8a9a58" vector-effect="non-scaling-stroke" d="
  M 312.55 45.77
  Q 311.77 45.27 310.22 44.32
  Q 307.33 42.52 304.78 44.21
  Q 304.07 44.68 303.28 45.83
  Q 302.56 46.86 301.95 47.63"
/>
<path stroke="#1d5161" vector-effect="non-scaling-stroke" d="
  M 312.55 45.77
  Q 320.02 51.81 324.36 59.82"
/>
<path stroke="#8aaaa6" vector-effect="non-scaling-stroke" d="
  M 324.36 59.82
  Q 314.27 57.57 305.18 58.01
  Q 304.67 58.03 304.29 58.37
  C 301.61 60.77 300.04 64.59 298.43 67.78
  Q 298.20 68.23 297.72 68.08
  Q 285.66 64.37 273.04 68.22"
/>
<path stroke="#1d5161" vector-effect="non-scaling-stroke" d="
  M 273.04 68.22
  Q 283.43 62.28 295.12 59.79
  Q 295.60 59.69 295.83 59.26
  L 301.95 47.63"
/>
<path stroke="#ffdd7e" vector-effect="non-scaling-stroke" d="
  M 350.04 83.34
  L 350.38 87.49"
/>
<path stroke="#8aaaa6" vector-effect="non-scaling-stroke" d="
  M 350.38 87.49
  Q 349.57 98.96 342.49 107.95
  A 0.23 0.23 0.0 0 0 342.66 108.32
  L 353.42 108.62"
/>
<path stroke="#ffdd7e" vector-effect="non-scaling-stroke" d="
  M 364.79 110.11
  L 369.46 110.68"
/>
<path stroke="#fef5e4" vector-effect="non-scaling-stroke" d="
  M 375.63 112.04
  L 379.44 114.22"
/>
<path stroke="#8aaaa6" vector-effect="non-scaling-stroke" d="
  M 379.44 114.22
  Q 379.68 114.77 379.34 115.25"
/>
<path stroke="#fef5e4" vector-effect="non-scaling-stroke" d="
  M 379.34 115.25
  Q 374.83 117.33 371.92 121.45
  A 0.41 0.41 0.0 0 0 372.05 122.04
  Q 376.71 124.72 381.94 125.27"
/>
<path stroke="#8aaaa6" vector-effect="non-scaling-stroke" d="
  M 381.94 125.27
  Q 381.81 126.60 382.63 127.73"
/>
<path stroke="#fef5e4" vector-effect="non-scaling-stroke" d="
  M 382.63 127.73
  Q 380.12 133.59 380.64 140.10
  A 0.59 0.58 -0.5 0 0 381.19 140.63
  Q 387.45 140.91 392.71 137.63
  Q 393.48 137.15 393.95 136.48"
/>
<path stroke="#8aaaa6" vector-effect="non-scaling-stroke" d="
  M 393.95 136.48
  L 395.11 136.45"
/>
<path stroke="#fef5e4" vector-effect="non-scaling-stroke" d="
  M 395.11 136.45
  L 396.20 142.41
  A 0.96 0.95 67.3 0 0 397.69 143.03
  C 399.80 141.55 402.21 141.19 403.68 138.84
  Q 404.75 137.14 405.40 134.93"
/>
<path stroke="#8aaaa6" vector-effect="non-scaling-stroke" d="
  M 405.40 134.93
  L 409.85 132.14"
/>
<path stroke="#8aaaa6" vector-effect="non-scaling-stroke" d="
  M 272.68 206.61
  L 271.58 199.17
  Q 271.51 198.65 272.03 198.59
  Q 280.28 197.63 288.24 195.23
  Q 298.24 192.22 308.12 188.88
  Q 325.98 182.85 337.72 168.54"
/>
<path stroke="#fef5e4" vector-effect="non-scaling-stroke" d="
  M 337.72 168.54
  C 343.84 171.34 348.05 169.83 353.68 168.48
  A 0.28 0.28 0.0 0 0 353.86 168.06
  Q 350.65 162.92 345.30 161.15
  Q 344.24 160.79 345.32 160.51
  C 349.45 159.44 353.00 159.22 355.56 155.20
  Q 355.83 154.77 355.44 154.44
  Q 350.62 150.51 345.82 149.38
  A 0.36 0.36 0.0 0 1 345.66 148.76
  Q 350.45 144.39 350.58 138.51
  Q 350.59 137.99 350.09 137.83
  Q 344.17 135.98 338.97 138.22
  Q 338.60 138.38 338.25 138.24
  A 0.72 0.72 0.0 0 1 337.84 137.32
  Q 339.40 133.06 338.16 128.98
  A 0.92 0.91 73.0 0 0 337.03 128.37
  Q 330.78 130.25 327.94 135.00"
/>
<path stroke="#8aaaa6" vector-effect="non-scaling-stroke" d="
  M 327.94 135.00
  Q 325.95 134.08 323.16 133.41
  Q 306.39 129.39 289.69 132.93
  C 285.28 133.86 281.06 135.39 276.76 136.72
  Q 276.15 136.91 276.32 136.29
  Q 277.97 130.17 280.86 124.04
  Q 281.38 122.94 280.31 123.52
  C 277.97 124.79 275.80 126.01 273.64 127.53
  Q 272.46 128.36 271.00 128.67
  Q 270.50 128.78 270.05 128.55
  Q 259.11 123.09 254.25 112.24
  Q 250.57 104.05 251.77 94.37
  C 252.09 91.84 253.23 89.66 253.72 87.19
  C 254.02 85.68 255.10 84.77 255.66 83.39
  C 256.63 80.99 258.68 79.03 260.29 77.01"
/>
<path stroke="#929487" vector-effect="non-scaling-stroke" d="
  M 273.04 68.22
  Q 265.81 71.26 260.29 77.01"
/>
<path stroke="#1d5161" vector-effect="non-scaling-stroke" d="
  M 260.29 77.01
  Q 257.30 76.76 255.27 75.27"
/>
<path stroke="#1d5161" vector-effect="non-scaling-stroke" d="
  M 403.05 99.08
  Q 391.46 95.19 382.97 103.74"
/>
<path stroke="#919c9f" vector-effect="non-scaling-stroke" d="
  M 382.97 103.74
  Q 377.14 103.50 371.65 106.07
  A 0.46 0.45 58.4 0 0 371.49 106.76
  L 375.63 112.04"
/>
<path stroke="#929487" vector-effect="non-scaling-stroke" d="
  M 375.63 112.04
  L 369.46 110.68"
/>
<path stroke="#928439" vector-effect="non-scaling-stroke" d="
  M 369.46 110.68
  Q 367.18 109.93 364.79 110.11"
/>
<path stroke="#929487" vector-effect="non-scaling-stroke" d="
  M 364.79 110.11
  L 353.42 108.62"
/>
<path stroke="#1d5161" vector-effect="non-scaling-stroke" d="
  M 353.42 108.62
  Q 354.43 96.93 350.87 85.94"
/>
<path stroke="#928439" vector-effect="non-scaling-stroke" d="
  M 350.87 85.94
  Q 350.69 84.19 350.04 83.34"
/>
<path stroke="#929487" vector-effect="non-scaling-stroke" d="
  M 350.04 83.34
  Q 344.15 70.62 332.57 63.51
  Q 330.99 62.54 328.52 61.57
  Q 326.14 60.63 324.36 59.82"
/>
<path stroke="#88b1be" vector-effect="non-scaling-stroke" d="
  M 405.40 134.93
  Q 402.71 129.67 397.12 132.52
  C 395.47 133.36 395.11 134.74 395.11 136.45"
/>
<path stroke="#88b1be" vector-effect="non-scaling-stroke" d="
  M 393.95 136.48
  Q 396.11 128.40 389.00 126.78
  Q 385.80 126.05 382.63 127.73"
/>
<path stroke="#88b1be" vector-effect="non-scaling-stroke" d="
  M 381.94 125.27
  C 388.29 125.40 388.12 115.83 381.27 115.58
  Q 380.28 115.54 379.34 115.25"
/>
<path stroke="#88b1be" vector-effect="non-scaling-stroke" d="
  M 379.44 114.22
  C 381.19 113.88 383.35 114.06 384.76 113.16
  C 388.64 110.70 387.04 105.27 382.97 103.74"
/>
<path stroke="#8a9a58" vector-effect="non-scaling-stroke" d="
  M 350.87 85.94
  Q 350.23 85.91 350.38 87.49"
/>
<path stroke="#88b1be" vector-effect="non-scaling-stroke" d="
  M 327.94 135.00
  Q 333.17 136.73 337.05 139.69
  C 347.52 147.68 344.41 159.37 337.72 168.54"
/>
<path stroke="#1d5161" vector-effect="non-scaling-stroke" d="
  M 238.75 163.23
  Q 243.45 154.97 248.96 148.37
  A 0.71 0.70 -46.7 0 0 248.94 147.44
  C 240.27 137.95 238.43 124.78 240.71 112.47
  Q 240.80 111.98 240.53 111.56
  Q 239.16 109.46 237.07 108.03"
/>
<path stroke="#929487" vector-effect="non-scaling-stroke" d="
  M 330.10 69.48
  C 326.04 65.52 321.82 62.59 316.71 66.73
  Q 314.42 68.60 312.24 70.88
  A 1.36 1.36 0.0 0 0 312.05 72.50
  L 312.18 72.72
  Q 312.60 73.44 313.19 72.85
  Q 314.89 71.17 316.69 69.19
  C 319.44 66.16 324.27 66.49 327.07 69.21
  Q 328.32 70.42 329.62 71.49
  Q 330.39 72.12 330.36 71.12
  Q 330.35 70.87 330.42 70.62
  Q 330.60 69.95 330.10 69.48"
/>
<path stroke="#929487" vector-effect="non-scaling-stroke" d="
  M 266.92 89.41
  C 269.38 82.78 274.08 75.33 281.78 78.57
  C 283.21 79.17 284.54 80.47 285.83 81.49
  Q 286.52 82.02 287.18 81.45
  Q 287.47 81.20 287.66 80.86
  A 0.83 0.83 0.0 0 0 287.41 79.78
  C 282.00 75.98 277.74 73.44 271.70 78.64
  Q 267.00 82.68 265.07 88.35
  Q 264.93 88.73 265.23 89.01
  Q 265.77 89.52 266.51 89.65
  A 0.38 0.37 -74.8 0 0 266.92 89.41"
/>
<path stroke="#ff7768" vector-effect="non-scaling-stroke" d="
  M 295.27 86.55
  Q 285.68 89.58 276.96 96.01
  Q 272.22 99.51 267.87 103.48
  Q 267.60 103.72 267.81 104.01
  C 272.48 110.54 276.62 117.26 283.81 121.74
  A 0.52 0.51 31.9 0 0 284.51 121.58
  Q 284.65 121.35 284.68 121.07"
/>
<path stroke="#fef5e4" vector-effect="non-scaling-stroke" d="
  M 284.68 121.07
  Q 285.39 121.28 285.74 121.12
  Q 292.09 118.19 298.68 115.89
  Q 299.07 115.75 299.22 115.50
  Q 299.44 115.16 299.34 114.78"
/>
<path stroke="#ff7768" vector-effect="non-scaling-stroke" d="
  M 299.34 114.78
  L 299.78 115.13
  Q 300.19 115.44 300.68 115.28
  Q 311.61 111.83 316.50 111.08
  Q 320.49 110.46 324.53 109.86"
/>
<path stroke="#c07766" vector-effect="non-scaling-stroke" d="
  M 324.53 109.86
  Q 324.46 109.52 324.92 109.15"
/>
<path stroke="#fef5e4" vector-effect="non-scaling-stroke" d="
  M 324.92 109.15
  Q 325.01 109.31 325.09 109.44
  Q 325.27 109.73 325.60 109.69
  L 338.28 108.09"
/>
<path stroke="#c07766" vector-effect="non-scaling-stroke" d="
  M 338.28 108.09
  Q 338.92 108.64 339.56 108.42
  Q 340.10 108.23 340.35 107.63
  Q 342.12 103.41 342.17 100.20
  Q 342.25 94.49 341.91 87.62
  Q 341.89 87.12 341.41 86.95
  Q 318.48 78.85 295.27 86.55"
/>
<path stroke="#be7e7f" vector-effect="non-scaling-stroke" d="
  M 338.28 108.09
  L 331.19 100.94
  A 2.09 2.08 -57.0 0 0 327.76 101.67
  L 324.92 109.15"
/>
<path stroke="#bf0003" vector-effect="non-scaling-stroke" d="
  M 324.53 109.86
  L 323.86 109.07
  Q 323.54 108.70 323.39 108.23
  Q 319.38 96.10 307.84 90.45
  Q 302.26 87.73 295.27 86.55"
/>
<path stroke="#fd7e80" vector-effect="non-scaling-stroke" d="
  M 299.34 114.78
  Q 297.00 112.42 294.40 110.29
  C 292.60 108.81 290.81 108.67 289.02 110.04
  Q 287.89 110.92 287.21 113.43
  Q 286.15 117.34 284.68 121.07"
/>
</g>
<path fill="#253b42" d="
  M 0.00 0.00
  L 643.00 0.00
  L 643.00 259.00
  L 0.00 259.00
  L 0.00 0.00
  Z
  M 161.18 166.51
  A 0.40 0.40 0.0 0 1 160.78 166.11
  L 160.79 19.65
  A 0.40 0.40 0.0 0 0 160.39 19.25
  L 125.28 19.25
  A 0.40 0.40 0.0 0 0 124.95 19.42
  L 21.81 168.57
  A 0.40 0.40 0.0 0 0 21.74 168.79
  L 21.74 196.77
  A 0.40 0.40 0.0 0 0 22.14 197.17
  L 124.60 197.15
  A 0.40 0.40 0.0 0 1 125.00 197.55
  L 125.00 246.27
  A 0.40 0.40 0.0 0 0 125.40 246.67
  L 160.39 246.67
  A 0.40 0.40 0.0 0 0 160.79 246.27
  L 160.79 197.55
  A 0.40 0.40 0.0 0 1 161.19 197.15
  L 190.65 197.18
  A 0.40 0.40 0.0 0 0 191.05 196.78
  L 191.06 166.91
  A 0.40 0.40 0.0 0 0 190.66 166.51
  L 161.18 166.51
  Z
  M 590.57 197.34
  A 0.32 0.32 0.0 0 1 590.89 197.02
  L 620.76 197.02
  A 0.32 0.32 0.0 0 0 621.08 196.70
  L 621.07 167.04
  A 0.32 0.32 0.0 0 0 620.75 166.72
  L 590.88 166.71
  A 0.32 0.32 0.0 0 1 590.56 166.39
  L 590.55 19.57
  A 0.32 0.32 0.0 0 0 590.23 19.25
  L 555.33 19.25
  A 0.32 0.32 0.0 0 0 555.06 19.39
  L 451.78 168.75
  A 0.32 0.32 0.0 0 0 451.72 168.93
  L 451.72 196.74
  A 0.32 0.32 0.0 0 0 452.04 197.06
  L 554.82 197.04
  A 0.32 0.32 0.0 0 1 555.14 197.36
  L 555.14 246.14
  A 0.32 0.32 0.0 0 0 555.46 246.46
  L 590.22 246.46
  A 0.32 0.32 0.0 0 0 590.54 246.14
  L 590.57 197.34
  Z
  M 331.67 247.45
  Q 334.79 247.36 338.18 246.86
  Q 349.51 245.19 358.87 242.12
  Q 369.31 238.69 377.50 234.19
  Q 414.52 213.85 430.26 174.16
  Q 431.11 172.01 431.65 169.89
  Q 432.21 167.75 433.03 165.70
  Q 434.16 162.90 434.62 159.50
  C 435.03 156.48 436.03 153.67 436.41 150.59
  Q 438.44 134.39 436.45 117.09
  C 436.13 114.28 435.14 111.71 434.71 108.95
  Q 434.28 106.06 433.35 103.04
  Q 430.37 93.25 428.04 88.21
  Q 406.64 41.74 358.29 25.32
  C 354.85 24.15 351.43 23.59 347.93 22.66
  Q 344.35 21.71 340.24 21.19
  Q 324.77 19.25 310.67 20.78
  Q 303.73 21.54 296.86 23.19
  Q 289.73 24.89 283.64 27.27
  Q 282.19 27.84 280.74 28.31
  Q 279.19 28.82 277.99 29.49
  C 275.91 30.66 273.74 31.39 271.69 32.48
  C 245.57 46.30 226.20 68.22 216.17 95.99
  Q 214.18 101.49 213.05 106.76
  Q 212.33 110.16 211.60 113.52
  Q 210.86 116.92 210.55 120.55
  Q 209.33 134.97 210.79 149.66
  C 211.11 152.89 212.15 155.99 212.69 159.17
  Q 213.31 162.80 214.39 166.22
  Q 229.39 213.60 274.00 236.42
  Q 282.00 240.51 296.60 244.43
  Q 299.97 245.34 308.45 246.79
  Q 314.17 247.76 320.05 247.69
  Q 326.15 247.61 331.67 247.45
  Z"
/>
<path fill="#ffcd30" d="
  M 161.18 166.51
  L 190.66 166.51
  A 0.40 0.40 0.0 0 1 191.06 166.91
  L 191.05 196.78
  A 0.40 0.40 0.0 0 1 190.65 197.18
  L 161.19 197.15
  A 0.40 0.40 0.0 0 0 160.79 197.55
  L 160.79 246.27
  A 0.40 0.40 0.0 0 1 160.39 246.67
  L 125.40 246.67
  A 0.40 0.40 0.0 0 1 125.00 246.27
  L 125.00 197.55
  A 0.40 0.40 0.0 0 0 124.60 197.15
  L 22.14 197.17
  A 0.40 0.40 0.0 0 1 21.74 196.77
  L 21.74 168.79
  A 0.40 0.40 0.0 0 1 21.81 168.57
  L 124.95 19.42
  A 0.40 0.40 0.0 0 1 125.28 19.25
  L 160.39 19.25
  A 0.40 0.40 0.0 0 1 160.79 19.65
  L 160.78 166.11
  A 0.40 0.40 0.0 0 0 161.18 166.51
  Z
  M 125.19 60.86
  C 120.99 70.95 114.94 80.64 108.69 89.73
  Q 81.78 128.91 56.27 166.00
  Q 55.92 166.51 56.54 166.51
  L 124.71 166.51
  Q 125.02 166.51 125.02 166.21
  Q 124.97 134.73 125.02 100.54
  C 125.05 87.11 125.86 73.91 126.60 60.61
  A 0.43 0.42 82.8 0 0 126.05 60.18
  Q 125.76 60.27 125.52 60.45
  Q 125.30 60.61 125.19 60.86
  Z"
/>
<path fill="#ffcd30" d="
  M 590.57 197.34
  L 590.54 246.14
  A 0.32 0.32 0.0 0 1 590.22 246.46
  L 555.46 246.46
  A 0.32 0.32 0.0 0 1 555.14 246.14
  L 555.14 197.36
  A 0.32 0.32 0.0 0 0 554.82 197.04
  L 452.04 197.06
  A 0.32 0.32 0.0 0 1 451.72 196.74
  L 451.72 168.93
  A 0.32 0.32 0.0 0 1 451.78 168.75
  L 555.06 19.39
  A 0.32 0.32 0.0 0 1 555.33 19.25
  L 590.23 19.25
  A 0.32 0.32 0.0 0 1 590.55 19.57
  L 590.56 166.39
  A 0.32 0.32 0.0 0 0 590.88 166.71
  L 620.75 166.72
  A 0.32 0.32 0.0 0 1 621.07 167.04
  L 621.08 196.70
  A 0.32 0.32 0.0 0 1 620.76 197.02
  L 590.89 197.02
  A 0.32 0.32 0.0 0 0 590.57 197.34
  Z
  M 555.37 91.23
  C 555.47 81.78 556.02 71.09 556.55 60.63
  A 0.47 0.46 80.8 0 0 555.92 60.17
  Q 555.23 60.45 554.93 61.12
  C 550.24 71.88 543.93 81.95 536.93 92.10
  Q 509.97 131.18 485.86 166.38
  A 0.21 0.21 0.0 0 0 486.03 166.71
  L 554.78 166.72
  Q 555.19 166.72 555.19 166.31
  Q 554.95 128.90 555.37 91.23
  Z"
/>
<path fill="#ffcd30" d="
  M 331.67 247.45
  Q 326.15 247.61 320.05 247.69
  Q 314.17 247.76 308.45 246.79
  Q 299.97 245.34 296.60 244.43
  Q 282.00 240.51 274.00 236.42
  Q 229.39 213.60 214.39 166.22
  Q 213.31 162.80 212.69 159.17
  C 212.15 155.99 211.11 152.89 210.79 149.66
  Q 209.33 134.97 210.55 120.55
  Q 210.86 116.92 211.60 113.52
  Q 212.33 110.16 213.05 106.76
  Q 214.18 101.49 216.17 95.99
  C 226.20 68.22 245.57 46.30 271.69 32.48
  C 273.74 31.39 275.91 30.66 277.99 29.49
  Q 279.19 28.82 280.74 28.31
  Q 282.19 27.84 283.64 27.27
  Q 289.73 24.89 296.86 23.19
  Q 303.73 21.54 310.67 20.78
  Q 324.77 19.25 340.24 21.19
  Q 344.35 21.71 347.93 22.66
  C 351.43 23.59 354.85 24.15 358.29 25.32
  Q 406.64 41.74 428.04 88.21
  Q 430.37 93.25 433.35 103.04
  Q 434.28 106.06 434.71 108.95
  C 435.14 111.71 436.13 114.28 436.45 117.09
  Q 438.44 134.39 436.41 150.59
  C 436.03 153.67 435.03 156.48 434.62 159.50
  Q 434.16 162.90 433.03 165.70
  Q 432.21 167.75 431.65 169.89
  Q 431.11 172.01 430.26 174.16
  Q 414.52 213.85 377.50 234.19
  Q 369.31 238.69 358.87 242.12
  Q 349.51 245.19 338.18 246.86
  Q 334.79 247.36 331.67 247.45
  Z
  M 301.95 47.63
  Q 297.72 48.45 294.14 49.65
  Q 271.38 57.23 255.27 75.27
  Q 255.27 75.44 254.77 75.36
  Q 247.39 74.25 238.41 74.74
  C 235.44 74.90 232.84 76.26 231.20 78.71
  Q 229.78 80.82 229.69 84.60
  Q 229.48 94.15 234.12 102.69
  Q 235.69 105.57 237.07 108.03
  Q 229.09 135.30 238.75 163.23
  Q 248.26 190.20 272.68 206.61
  Q 294.82 220.95 320.26 221.44
  Q 348.29 221.97 372.10 205.85
  Q 400.17 186.85 408.23 152.00
  Q 410.28 143.12 409.85 132.14
  Q 418.60 125.47 416.07 114.92
  C 415.43 112.25 413.55 109.59 412.21 107.01
  Q 409.69 102.16 403.05 99.08
  C 394.35 77.85 377.07 61.28 356.25 52.23
  Q 336.22 43.53 312.55 45.77
  Q 311.77 45.27 310.22 44.32
  Q 307.33 42.52 304.78 44.21
  Q 304.07 44.68 303.28 45.83
  Q 302.56 46.86 301.95 47.63
  Z"
/>
<path fill="#146680" d="
  M 312.55 45.77
  Q 320.02 51.81 324.36 59.82
  Q 314.27 57.57 305.18 58.01
  Q 304.67 58.03 304.29 58.37
  C 301.61 60.77 300.04 64.59 298.43 67.78
  Q 298.20 68.23 297.72 68.08
  Q 285.66 64.37 273.04 68.22
  Q 283.43 62.28 295.12 59.79
  Q 295.60 59.69 295.83 59.26
  L 301.95 47.63
  Q 302.56 46.86 303.28 45.83
  Q 304.07 44.68 304.78 44.21
  Q 307.33 42.52 310.22 44.32
  Q 311.77 45.27 312.55 45.77
  Z"
/>
<path fill="#253b42" d="
  M 403.05 99.08
  Q 391.46 95.19 382.97 103.74
  Q 377.14 103.50 371.65 106.07
  A 0.46 0.45 58.4 0 0 371.49 106.76
  L 375.63 112.04
  L 369.46 110.68
  Q 367.18 109.93 364.79 110.11
  L 353.42 108.62
  Q 354.43 96.93 350.87 85.94
  Q 350.69 84.19 350.04 83.34
  Q 344.15 70.62 332.57 63.51
  Q 330.99 62.54 328.52 61.57
  Q 326.14 60.63 324.36 59.82
  Q 320.02 51.81 312.55 45.77
  Q 336.22 43.53 356.25 52.23
  C 377.07 61.28 394.35 77.85 403.05 99.08
  Z"
/>
<path fill="#253b42" d="
  M 301.95 47.63
  L 295.83 59.26
  Q 295.60 59.69 295.12 59.79
  Q 283.43 62.28 273.04 68.22
  Q 265.81 71.26 260.29 77.01
  Q 257.30 76.76 255.27 75.27
  Q 271.38 57.23 294.14 49.65
  Q 297.72 48.45 301.95 47.63
  Z"
/>
<path fill="#ffedcb" d="
  M 324.36 59.82
  Q 326.14 60.63 328.52 61.57
  Q 330.99 62.54 332.57 63.51
  Q 344.15 70.62 350.04 83.34
  L 350.38 87.49
  Q 349.57 98.96 342.49 107.95
  A 0.23 0.23 0.0 0 0 342.66 108.32
  L 353.42 108.62
  L 364.79 110.11
  L 369.46 110.68
  L 375.63 112.04
  L 379.44 114.22
  Q 379.68 114.77 379.34 115.25
  Q 374.83 117.33 371.92 121.45
  A 0.41 0.41 0.0 0 0 372.05 122.04
  Q 376.71 124.72 381.94 125.27
  Q 381.81 126.60 382.63 127.73
  Q 380.12 133.59 380.64 140.10
  A 0.59 0.58 -0.5 0 0 381.19 140.63
  Q 387.45 140.91 392.71 137.63
  Q 393.48 137.15 393.95 136.48
  L 395.11 136.45
  L 396.20 142.41
  A 0.96 0.95 67.3 0 0 397.69 143.03
  C 399.80 141.55 402.21 141.19 403.68 138.84
  Q 404.75 137.14 405.40 134.93
  L 409.85 132.14
  Q 410.28 143.12 408.23 152.00
  Q 400.17 186.85 372.10 205.85
  Q 348.29 221.97 320.26 221.44
  Q 294.82 220.95 272.68 206.61
  L 271.58 199.17
  Q 271.51 198.65 272.03 198.59
  Q 280.28 197.63 288.24 195.23
  Q 298.24 192.22 308.12 188.88
  Q 325.98 182.85 337.72 168.54
  C 343.84 171.34 348.05 169.83 353.68 168.48
  A 0.28 0.28 0.0 0 0 353.86 168.06
  Q 350.65 162.92 345.30 161.15
  Q 344.24 160.79 345.32 160.51
  C 349.45 159.44 353.00 159.22 355.56 155.20
  Q 355.83 154.77 355.44 154.44
  Q 350.62 150.51 345.82 149.38
  A 0.36 0.36 0.0 0 1 345.66 148.76
  Q 350.45 144.39 350.58 138.51
  Q 350.59 137.99 350.09 137.83
  Q 344.17 135.98 338.97 138.22
  Q 338.60 138.38 338.25 138.24
  A 0.72 0.72 0.0 0 1 337.84 137.32
  Q 339.40 133.06 338.16 128.98
  A 0.92 0.91 73.0 0 0 337.03 128.37
  Q 330.78 130.25 327.94 135.00
  Q 325.95 134.08 323.16 133.41
  Q 306.39 129.39 289.69 132.93
  C 285.28 133.86 281.06 135.39 276.76 136.72
  Q 276.15 136.91 276.32 136.29
  Q 277.97 130.17 280.86 124.04
  Q 281.38 122.94 280.31 123.52
  C 277.97 124.79 275.80 126.01 273.64 127.53
  Q 272.46 128.36 271.00 128.67
  Q 270.50 128.78 270.05 128.55
  Q 259.11 123.09 254.25 112.24
  Q 250.57 104.05 251.77 94.37
  C 252.09 91.84 253.23 89.66 253.72 87.19
  C 254.02 85.68 255.10 84.77 255.66 83.39
  C 256.63 80.99 258.68 79.03 260.29 77.01
  Q 265.81 71.26 273.04 68.22
  Q 285.66 64.37 297.72 68.08
  Q 298.20 68.23 298.43 67.78
  C 300.04 64.59 301.61 60.77 304.29 58.37
  Q 304.67 58.03 305.18 58.01
  Q 314.27 57.57 324.36 59.82
  Z
  M 330.10 69.48
  C 326.04 65.52 321.82 62.59 316.71 66.73
  Q 314.42 68.60 312.24 70.88
  A 1.36 1.36 0.0 0 0 312.05 72.50
  L 312.18 72.72
  Q 312.60 73.44 313.19 72.85
  Q 314.89 71.17 316.69 69.19
  C 319.44 66.16 324.27 66.49 327.07 69.21
  Q 328.32 70.42 329.62 71.49
  Q 330.39 72.12 330.36 71.12
  Q 330.35 70.87 330.42 70.62
  Q 330.60 69.95 330.10 69.48
  Z
  M 266.92 89.41
  C 269.38 82.78 274.08 75.33 281.78 78.57
  C 283.21 79.17 284.54 80.47 285.83 81.49
  Q 286.52 82.02 287.18 81.45
  Q 287.47 81.20 287.66 80.86
  A 0.83 0.83 0.0 0 0 287.41 79.78
  C 282.00 75.98 277.74 73.44 271.70 78.64
  Q 267.00 82.68 265.07 88.35
  Q 264.93 88.73 265.23 89.01
  Q 265.77 89.52 266.51 89.65
  A 0.38 0.37 -74.8 0 0 266.92 89.41
  Z
  M 295.27 86.55
  Q 285.68 89.58 276.96 96.01
  Q 272.22 99.51 267.87 103.48
  Q 267.60 103.72 267.81 104.01
  C 272.48 110.54 276.62 117.26 283.81 121.74
  A 0.52 0.51 31.9 0 0 284.51 121.58
  Q 284.65 121.35 284.68 121.07
  Q 285.39 121.28 285.74 121.12
  Q 292.09 118.19 298.68 115.89
  Q 299.07 115.75 299.22 115.50
  Q 299.44 115.16 299.34 114.78
  L 299.78 115.13
  Q 300.19 115.44 300.68 115.28
  Q 311.61 111.83 316.50 111.08
  Q 320.49 110.46 324.53 109.86
  Q 324.46 109.52 324.92 109.15
  Q 325.01 109.31 325.09 109.44
  Q 325.27 109.73 325.60 109.69
  L 338.28 108.09
  Q 338.92 108.64 339.56 108.42
  Q 340.10 108.23 340.35 107.63
  Q 342.12 103.41 342.17 100.20
  Q 342.25 94.49 341.91 87.62
  Q 341.89 87.12 341.41 86.95
  Q 318.48 78.85 295.27 86.55
  Z"
/>
<path fill="#253b42" d="
  M 108.69 89.73
  C 114.94 80.64 120.99 70.95 125.19 60.86
  Q 125.30 60.61 125.52 60.45
  Q 125.76 60.27 126.05 60.18
  A 0.43 0.42 82.8 0 1 126.60 60.61
  C 125.86 73.91 125.05 87.11 125.02 100.54
  Q 124.97 134.73 125.02 166.21
  Q 125.02 166.51 124.71 166.51
  L 56.54 166.51
  Q 55.92 166.51 56.27 166.00
  Q 81.78 128.91 108.69 89.73
  Z"
/>
<path fill="#253b42" d="
  M 556.55 60.63
  C 556.02 71.09 555.47 81.78 555.37 91.23
  Q 554.95 128.90 555.19 166.31
  Q 555.19 166.72 554.78 166.72
  L 486.03 166.71
  A 0.21 0.21 0.0 0 1 485.86 166.38
  Q 509.97 131.18 536.93 92.10
  C 543.93 81.95 550.24 71.88 554.93 61.12
  Q 555.23 60.45 555.92 60.17
  A 0.47 0.46 80.8 0 1 556.55 60.63
  Z"
/>
<path fill="#253b42" d="
  M 316.71 66.73
  C 321.82 62.59 326.04 65.52 330.10 69.48
  Q 330.60 69.95 330.42 70.62
  Q 330.35 70.87 330.36 71.12
  Q 330.39 72.12 329.62 71.49
  Q 328.32 70.42 327.07 69.21
  C 324.27 66.49 319.44 66.16 316.69 69.19
  Q 314.89 71.17 313.19 72.85
  Q 312.60 73.44 312.18 72.72
  L 312.05 72.50
  A 1.36 1.36 0.0 0 1 312.24 70.88
  Q 314.42 68.60 316.71 66.73
  Z"
/>
<path fill="#146680" d="
  M 255.27 75.27
  Q 257.30 76.76 260.29 77.01
  C 258.68 79.03 256.63 80.99 255.66 83.39
  C 255.10 84.77 254.02 85.68 253.72 87.19
  C 253.23 89.66 252.09 91.84 251.77 94.37
  Q 250.57 104.05 254.25 112.24
  Q 259.11 123.09 270.05 128.55
  Q 270.50 128.78 271.00 128.67
  Q 272.46 128.36 273.64 127.53
  C 275.80 126.01 277.97 124.79 280.31 123.52
  Q 281.38 122.94 280.86 124.04
  Q 277.97 130.17 276.32 136.29
  Q 276.15 136.91 276.76 136.72
  C 281.06 135.39 285.28 133.86 289.69 132.93
  Q 306.39 129.39 323.16 133.41
  Q 325.95 134.08 327.94 135.00
  Q 333.17 136.73 337.05 139.69
  C 347.52 147.68 344.41 159.37 337.72 168.54
  Q 325.98 182.85 308.12 188.88
  Q 298.24 192.22 288.24 195.23
  Q 280.28 197.63 272.03 198.59
  Q 271.51 198.65 271.58 199.17
  L 272.68 206.61
  Q 248.26 190.20 238.75 163.23
  Q 243.45 154.97 248.96 148.37
  A 0.71 0.70 -46.7 0 0 248.94 147.44
  C 240.27 137.95 238.43 124.78 240.71 112.47
  Q 240.80 111.98 240.53 111.56
  Q 239.16 109.46 237.07 108.03
  Q 235.69 105.57 234.12 102.69
  Q 229.48 94.15 229.69 84.60
  Q 229.78 80.82 231.20 78.71
  C 232.84 76.26 235.44 74.90 238.41 74.74
  Q 247.39 74.25 254.77 75.36
  Q 255.27 75.44 255.27 75.27
  Z"
/>
<path fill="#253b42" d="
  M 266.92 89.41
  A 0.38 0.37 -74.8 0 1 266.51 89.65
  Q 265.77 89.52 265.23 89.01
  Q 264.93 88.73 265.07 88.35
  Q 267.00 82.68 271.70 78.64
  C 277.74 73.44 282.00 75.98 287.41 79.78
  A 0.83 0.83 0.0 0 1 287.66 80.86
  Q 287.47 81.20 287.18 81.45
  Q 286.52 82.02 285.83 81.49
  C 284.54 80.47 283.21 79.17 281.78 78.57
  C 274.08 75.33 269.38 82.78 266.92 89.41
  Z"
/>
<path fill="#800001" d="
  M 338.28 108.09
  L 331.19 100.94
  A 2.09 2.08 -57.0 0 0 327.76 101.67
  L 324.92 109.15
  Q 324.46 109.52 324.53 109.86
  L 323.86 109.07
  Q 323.54 108.70 323.39 108.23
  Q 319.38 96.10 307.84 90.45
  Q 302.26 87.73 295.27 86.55
  Q 318.48 78.85 341.41 86.95
  Q 341.89 87.12 341.91 87.62
  Q 342.25 94.49 342.17 100.20
  Q 342.12 103.41 340.35 107.63
  Q 340.10 108.23 339.56 108.42
  Q 338.92 108.64 338.28 108.09
  Z"
/>
<path fill="#ffcd30" d="
  M 350.04 83.34
  Q 350.69 84.19 350.87 85.94
  Q 350.23 85.91 350.38 87.49
  L 350.04 83.34
  Z"
/>
<path fill="#146680" d="
  M 350.87 85.94
  Q 354.43 96.93 353.42 108.62
  L 342.66 108.32
  A 0.23 0.23 0.0 0 1 342.49 107.95
  Q 349.57 98.96 350.38 87.49
  Q 350.23 85.91 350.87 85.94
  Z"
/>
<path fill="#fe0004" d="
  M 295.27 86.55
  Q 302.26 87.73 307.84 90.45
  Q 319.38 96.10 323.39 108.23
  Q 323.54 108.70 323.86 109.07
  L 324.53 109.86
  Q 320.49 110.46 316.50 111.08
  Q 311.61 111.83 300.68 115.28
  Q 300.19 115.44 299.78 115.13
  L 299.34 114.78
  Q 297.00 112.42 294.40 110.29
  C 292.60 108.81 290.81 108.67 289.02 110.04
  Q 287.89 110.92 287.21 113.43
  Q 286.15 117.34 284.68 121.07
  Q 284.65 121.35 284.51 121.58
  A 0.52 0.51 31.9 0 1 283.81 121.74
  C 276.62 117.26 272.48 110.54 267.81 104.01
  Q 267.60 103.72 267.87 103.48
  Q 272.22 99.51 276.96 96.01
  Q 285.68 89.58 295.27 86.55
  Z"
/>
<path fill="#146680" d="
  M 403.05 99.08
  Q 409.69 102.16 412.21 107.01
  C 413.55 109.59 415.43 112.25 416.07 114.92
  Q 418.60 125.47 409.85 132.14
  L 405.40 134.93
  Q 402.71 129.67 397.12 132.52
  C 395.47 133.36 395.11 134.74 395.11 136.45
  L 393.95 136.48
  Q 396.11 128.40 389.00 126.78
  Q 385.80 126.05 382.63 127.73
  Q 381.81 126.60 381.94 125.27
  C 388.29 125.40 388.12 115.83 381.27 115.58
  Q 380.28 115.54 379.34 115.25
  Q 379.68 114.77 379.44 114.22
  C 381.19 113.88 383.35 114.06 384.76 113.16
  C 388.64 110.70 387.04 105.27 382.97 103.74
  Q 391.46 95.19 403.05 99.08
  Z"
/>
<path fill="#fcfcfc" d="
  M 338.28 108.09
  L 325.60 109.69
  Q 325.27 109.73 325.09 109.44
  Q 325.01 109.31 324.92 109.15
  L 327.76 101.67
  A 2.09 2.08 -57.0 0 1 331.19 100.94
  L 338.28 108.09
  Z"
/>
<path fill="#fcfcfc" d="
  M 382.97 103.74
  C 387.04 105.27 388.64 110.70 384.76 113.16
  C 383.35 114.06 381.19 113.88 379.44 114.22
  L 375.63 112.04
  L 371.49 106.76
  A 0.46 0.45 58.4 0 1 371.65 106.07
  Q 377.14 103.50 382.97 103.74
  Z"
/>
<path fill="#253b42" d="
  M 237.07 108.03
  Q 239.16 109.46 240.53 111.56
  Q 240.80 111.98 240.71 112.47
  C 238.43 124.78 240.27 137.95 248.94 147.44
  A 0.71 0.70 -46.7 0 1 248.96 148.37
  Q 243.45 154.97 238.75 163.23
  Q 229.09 135.30 237.07 108.03
  Z"
/>
<path fill="#fcfcfc" d="
  M 299.34 114.78
  Q 299.44 115.16 299.22 115.50
  Q 299.07 115.75 298.68 115.89
  Q 292.09 118.19 285.74 121.12
  Q 285.39 121.28 284.68 121.07
  Q 286.15 117.34 287.21 113.43
  Q 287.89 110.92 289.02 110.04
  C 290.81 108.67 292.60 108.81 294.40 110.29
  Q 297.00 112.42 299.34 114.78
  Z"
/>
<path fill="#ffcd30" d="
  M 364.79 110.11
  Q 367.18 109.93 369.46 110.68
  L 364.79 110.11
  Z"
/>
<path fill="#fcfcfc" d="
  M 379.34 115.25
  Q 380.28 115.54 381.27 115.58
  C 388.12 115.83 388.29 125.40 381.94 125.27
  Q 376.71 124.72 372.05 122.04
  A 0.41 0.41 0.0 0 1 371.92 121.45
  Q 374.83 117.33 379.34 115.25
  Z"
/>
<path fill="#fcfcfc" d="
  M 393.95 136.48
  Q 393.48 137.15 392.71 137.63
  Q 387.45 140.91 381.19 140.63
  A 0.59 0.58 -0.5 0 1 380.64 140.10
  Q 380.12 133.59 382.63 127.73
  Q 385.80 126.05 389.00 126.78
  Q 396.11 128.40 393.95 136.48
  Z"
/>
<path fill="#fcfcfc" d="
  M 337.72 168.54
  C 344.41 159.37 347.52 147.68 337.05 139.69
  Q 333.17 136.73 327.94 135.00
  Q 330.78 130.25 337.03 128.37
  A 0.92 0.91 73.0 0 1 338.16 128.98
  Q 339.40 133.06 337.84 137.32
  A 0.72 0.72 0.0 0 0 338.25 138.24
  Q 338.60 138.38 338.97 138.22
  Q 344.17 135.98 350.09 137.83
  Q 350.59 137.99 350.58 138.51
  Q 350.45 144.39 345.66 148.76
  A 0.36 0.36 0.0 0 0 345.82 149.38
  Q 350.62 150.51 355.44 154.44
  Q 355.83 154.77 355.56 155.20
  C 353.00 159.22 349.45 159.44 345.32 160.51
  Q 344.24 160.79 345.30 161.15
  Q 350.65 162.92 353.86 168.06
  A 0.28 0.28 0.0 0 1 353.68 168.48
  C 348.05 169.83 343.84 171.34 337.72 168.54
  Z"
/>
<path fill="#fcfcfc" d="
  M 405.40 134.93
  Q 404.75 137.14 403.68 138.84
  C 402.21 141.19 399.80 141.55 397.69 143.03
  A 0.96 0.95 67.3 0 1 396.20 142.41
  L 395.11 136.45
  C 395.11 134.74 395.47 133.36 397.12 132.52
  Q 402.71 129.67 405.40 134.93
  Z"
/>
</svg>
